<?xml version="1.0" encoding="UTF-8"?>
<svg id="Capa_1" data-name="Capa 1" xmlns="http://www.w3.org/2000/svg" viewBox="0 0 320.47 58.42">
  <defs>
    <style>
      .cls-1 {
        fill: #fff;
      }

      .cls-2 {
        fill: #fff;
      }
    </style>
  </defs>
  <path class="cls-1" d="M205.4,15.57c3,0,5.17-2.06,5.17-4.89V1.64h-2.92v8.94c0,1.46-.86,2.36-2.25,2.36s-2.24-.89-2.24-2.36V1.64h-2.94v9.04c0,2.84,2.18,4.89,5.18,4.89"/>
  <path class="cls-1" d="M215.87,9.33c0-1.55,1.18-1.68,1.54-1.68s1.52.12,1.52,1.68v6.13h2.77v-6.47c0-1.31-.32-2.17-1.06-2.91-.6-.6-1.45-.92-2.46-.92-.89,0-1.74.31-2.37.85v-.74h-2.71v10.18h2.77v-6.13Z"/>
  <rect class="cls-1" x="224.14" y="5.27" width="2.77" height="10.18"/>
  <rect class="cls-1" x="224.1" y="1.56" width="2.82" height="2.28"/>
  <polygon class="cls-1" points="234.37 15.45 238.15 5.27 235.23 5.27 233.3 11.11 231.35 5.27 228.43 5.27 232.23 15.45 234.37 15.45"/>
  <path class="cls-1" d="M243.12,7.48c.72,0,1.27.34,1.55.95.13.31.19.54.21.88h-3.53c.02-.34.08-.58.21-.88.28-.61.83-.95,1.56-.95M243.39,15.57c1.9,0,2.91-.61,3.9-1.6l.1-.09-1.71-1.65-.09.09c-.6.59-1.1.89-2.18.89-1.23,0-2-.74-2.06-1.94h6.27v-1.24c0-2.96-1.77-4.87-4.5-4.87s-4.5,1.99-4.5,5.2c0,4.31,2.59,5.21,4.77,5.21"/>
  <path class="cls-1" d="M252.43,9.34c0-1.16.77-1.7,1.49-1.7.57,0,.86.19,1.23.55l.09.09,2.07-2.07-.09-.09c-.7-.69-1.41-.97-2.46-.97-.9,0-1.8.34-2.39.87v-.76h-2.71v10.18h2.76v-6.11Z"/>
  <path class="cls-1" d="M266.43,12.2c0-1.77-1.1-2.85-3.1-3.04l-1.58-.15c-.81-.07-.92-.42-.92-.72,0-.4.34-.82,1.29-.82,1.02,0,1.77.21,2.24.63l.09.08,1.73-1.73-.1-.09c-.89-.83-2.1-1.2-3.92-1.2-1.93,0-4,1.03-4,3.29,0,1.76.99,2.71,3.04,2.91l1.58.15c.83.08.94.46.94.78,0,.66-.88.89-1.64.89-.72,0-1.77-.09-2.58-.89l-.09-.09-1.82,1.8.09.09c1.37,1.35,2.91,1.46,4.37,1.46,2.7,0,4.39-1.29,4.39-3.37"/>
  <rect class="cls-1" x="268.23" y="1.56" width="2.83" height="2.28"/>
  <rect class="cls-1" x="268.27" y="5.27" width="2.77" height="10.18"/>
  <path class="cls-1" d="M279.05,10.35c0,1.72-.26,2.72-1.58,2.72s-1.56-.96-1.56-2.72.25-2.7,1.56-2.7,1.58.99,1.58,2.7M281.81,15.45V1.64h-2.77v4.32c-.61-.55-1.33-.8-2.31-.8s-1.95.35-2.54.93c-1.06,1.05-1.06,2.83-1.06,4.26s0,3.23,1.06,4.28c.59.59,1.54.94,2.56.94s1.71-.25,2.35-.86v.74h2.71Z"/>
  <path class="cls-1" d="M287.63,13.27c-.85,0-1.31-.36-1.31-1.01s.45-.99,1.28-.99h1.85v.4c0,.6-.1.95-.33,1.16-.4.38-.78.44-1.49.44M287.21,9.31c-2.62,0-3.56,1.55-3.56,3,0,.92.31,1.75.87,2.32.62.61,1.49.91,2.65.91,1.02,0,1.68-.22,2.33-.78v.69h2.71v-6.66c0-2.38-1.52-3.64-4.4-3.64-1.78,0-2.76.37-3.72,1.41l-.09.1,1.79,1.73.09-.1c.46-.52.85-.77,1.83-.77,1.25,0,1.74.4,1.74,1.43v.37h-2.24Z"/>
  <path class="cls-1" d="M297.37,10.35c0-1.75.25-2.71,1.56-2.71s1.58.99,1.58,2.71-.26,2.72-1.58,2.72-1.56-.96-1.56-2.72M298.22,15.57c1.01,0,1.71-.25,2.35-.86v.74h2.71V1.64h-2.77v4.32c-.6-.55-1.33-.8-2.32-.8s-1.95.35-2.54.93c-1.06,1.05-1.06,2.83-1.06,4.26s0,3.23,1.06,4.28c.59.59,1.55.93,2.56.93"/>
  <polygon class="cls-1" points="213.12 35.12 213.12 21.31 210.27 21.31 206.79 28.46 203.29 21.31 200.44 21.31 200.44 35.12 203.38 35.12 203.38 27.63 205.77 32.29 205.8 32.36 207.78 32.36 210.18 27.64 210.18 35.12 213.12 35.12"/>
  <path class="cls-1" d="M218.31,28.1c.28-.61.83-.95,1.56-.95s1.28.34,1.55.95c.13.31.19.54.21.88h-3.53c.03-.34.08-.57.21-.88M219.86,24.83c-2.78,0-4.5,1.99-4.5,5.2,0,4.31,2.59,5.21,4.77,5.21,1.9,0,2.91-.61,3.9-1.6l.1-.1-1.71-1.65-.09.09c-.6.59-1.1.9-2.18.9-1.23,0-2-.74-2.06-1.94h6.27v-1.24c0-2.96-1.77-4.87-4.5-4.87"/>
  <path class="cls-1" d="M226.64,32.15c0,1.48.94,2.97,3.04,2.97h1.5v-2.36h-1.04c-.5,0-.73-.24-.73-.76v-4.63h1.77v-2.15h-1.77v-2.93h-2.76v2.93h-1.06v2.15h1.06v4.78Z"/>
  <path class="cls-1" d="M238.29,24.83c-.9,0-1.8.34-2.39.87v-.76h-2.71v10.18h2.76v-6.11c0-1.17.77-1.7,1.49-1.7.57,0,.86.18,1.24.55l.09.09,2.07-2.07-.09-.09c-.7-.69-1.41-.97-2.46-.97"/>
  <path class="cls-1" d="M244.23,27.72c.28-.27.61-.4,1.06-.4s.81.13,1.08.4c.5.49.54,1.37.54,2.31s-.04,1.83-.54,2.32c-.27.27-.62.4-1.08.4s-.78-.13-1.06-.4c-.5-.49-.54-1.38-.54-2.32s.04-1.81.54-2.31M245.29,35.24c1.75,0,2.77-.79,3.21-1.26.98-1.01,1.17-2.22,1.17-3.95s-.19-2.93-1.17-3.94c-.45-.47-1.46-1.26-3.21-1.26-1.65,0-2.65.68-3.19,1.26-.97,1.01-1.17,2.25-1.17,3.94s.19,2.94,1.17,3.95c.55.57,1.55,1.26,3.19,1.26"/>
  <path class="cls-1" d="M254.57,30.02c0-1.75.25-2.71,1.56-2.71s1.56.95,1.56,2.71-.25,2.72-1.56,2.72-1.56-.96-1.56-2.72M254.57,34.44c.6.56,1.31.8,2.29.8s1.95-.35,2.54-.93c1.06-1.05,1.06-2.84,1.06-4.28s0-3.22-1.06-4.26c-.59-.58-1.54-.93-2.54-.93s-1.73.26-2.37.86v-.74h-2.69v13.81h2.77v-4.32Z"/>
  <path class="cls-1" d="M265.47,27.72c.27-.27.61-.4,1.06-.4s.81.13,1.08.4c.5.49.54,1.37.54,2.31s-.04,1.83-.54,2.32c-.27.27-.62.4-1.08.4s-.79-.13-1.06-.4c-.5-.49-.54-1.38-.54-2.32s.04-1.81.54-2.31M266.53,35.24c1.75,0,2.76-.79,3.21-1.26.98-1.01,1.17-2.22,1.17-3.95s-.2-2.93-1.17-3.94c-.45-.47-1.46-1.26-3.21-1.26-1.65,0-2.65.68-3.2,1.26-.97,1.01-1.17,2.25-1.17,3.94s.19,2.94,1.17,3.95c.55.57,1.54,1.26,3.2,1.26"/>
  <path class="cls-1" d="M276,35.12h1.55v-2.36h-1.09c-.53,0-.75-.22-.75-.76v-10.7h-2.77v10.84c0,1.48.95,2.97,3.06,2.97"/>
  <rect class="cls-1" x="279.26" y="21.23" width="2.82" height="2.28"/>
  <rect class="cls-1" x="279.3" y="24.94" width="2.77" height="10.18"/>
  <path class="cls-1" d="M289.36,27.37v-2.15h-1.77v-2.93h-2.77v2.93h-1.06v2.15h1.06v4.78c0,1.48.94,2.97,3.04,2.97h1.5v-2.36h-1.04c-.5,0-.73-.24-.73-.76v-4.63h1.77Z"/>
  <path class="cls-1" d="M294.58,32.94c-.85,0-1.31-.36-1.31-1.01s.45-.99,1.27-.99h1.85v.4c0,.6-.1.95-.32,1.16-.4.38-.78.44-1.49.44M299.16,35.12v-6.66c0-2.38-1.52-3.63-4.41-3.63-1.78,0-2.75.37-3.72,1.41l-.09.09,1.79,1.73.09-.11c.46-.52.85-.77,1.83-.77,1.25,0,1.74.4,1.74,1.43v.36h-2.24c-2.62,0-3.56,1.55-3.56,3,0,.92.31,1.75.87,2.32.62.61,1.49.91,2.65.91,1.02,0,1.68-.21,2.33-.78v.68h2.71Z"/>
  <path class="cls-1" d="M307.42,28.99v6.13h2.76v-6.47c0-1.31-.32-2.17-1.06-2.91-.6-.59-1.45-.91-2.46-.91-.89,0-1.74.31-2.37.85v-.74h-2.71v10.18h2.77v-6.13c0-1.55,1.18-1.68,1.54-1.68s1.52.12,1.52,1.68"/>
  <path class="cls-1" d="M315.89,32.94c-.85,0-1.31-.36-1.31-1.01s.45-.99,1.27-.99h1.85v.4c0,.6-.09.95-.32,1.16-.4.38-.78.44-1.48.44M316.07,24.83c-1.78,0-2.76.37-3.72,1.41l-.09.09,1.79,1.73.09-.11c.46-.52.85-.77,1.82-.77,1.25,0,1.73.4,1.73,1.43v.36h-2.24c-2.62,0-3.56,1.55-3.56,3,0,.93.3,1.75.87,2.32.62.61,1.49.91,2.65.91,1.02,0,1.68-.22,2.33-.78v.68h2.71v-6.66c0-2.38-1.52-3.63-4.4-3.63"/>
  <path class="cls-1" d="M204.15,46.99c1.32,0,1.58.99,1.58,2.7s-.26,2.72-1.58,2.72-1.56-.96-1.56-2.72.25-2.7,1.56-2.7M205.73,45.29c-.6-.55-1.33-.8-2.31-.8s-1.95.35-2.54.93c-1.06,1.04-1.06,2.83-1.06,4.26s0,3.23,1.06,4.28c.59.58,1.55.93,2.56.93s1.71-.25,2.35-.86v.74h2.71v-13.82h-2.77v4.32Z"/>
  <path class="cls-1" d="M213.49,47.76c.28-.61.83-.95,1.56-.95s1.27.34,1.55.95c.13.31.19.54.21.88h-3.53c.02-.34.08-.57.21-.88M215.05,44.49c-2.78,0-4.5,1.99-4.5,5.19,0,4.31,2.59,5.21,4.77,5.21,1.9,0,2.91-.61,3.9-1.6l.1-.1-1.71-1.65-.09.09c-.6.59-1.1.89-2.18.89-1.23,0-2.01-.74-2.06-1.95h6.27v-1.23c0-2.96-1.77-4.87-4.5-4.87"/>
  <polygon class="cls-1" points="232.61 48.13 229.11 40.97 226.26 40.97 226.26 54.79 229.19 54.79 229.19 47.3 231.58 51.96 231.62 52.03 233.59 52.03 236 47.31 236 54.79 238.94 54.79 238.94 40.97 236.09 40.97 232.61 48.13"/>
  <path class="cls-1" d="M246.7,52.01c-.27.27-.62.4-1.08.4s-.79-.13-1.06-.4c-.5-.49-.54-1.38-.54-2.33s.04-1.81.54-2.3c.27-.27.61-.4,1.06-.4s.81.13,1.08.4c.5.49.54,1.37.54,2.3s-.04,1.83-.54,2.33M245.62,44.49c-1.65,0-2.65.68-3.19,1.26-.98,1.01-1.17,2.25-1.17,3.94s.19,2.94,1.17,3.96c.55.57,1.55,1.26,3.19,1.26,1.75,0,2.77-.79,3.21-1.26.98-1.01,1.17-2.21,1.17-3.96s-.2-2.93-1.17-3.93c-.45-.47-1.46-1.26-3.21-1.26"/>
  <path class="cls-1" d="M257.21,44.49c-.89,0-1.74.31-2.37.85v-.74h-2.71v10.18h2.77v-6.13c0-1.55,1.18-1.67,1.54-1.67s1.52.12,1.52,1.67v6.13h2.77v-6.47c0-1.31-.31-2.18-1.06-2.91-.61-.6-1.46-.91-2.46-.91"/>
  <path class="cls-1" d="M266.16,41.96h-2.77v2.93h-1.06v2.15h1.06v4.78c0,1.48.94,2.97,3.04,2.97h1.5v-2.36h-1.03c-.5,0-.73-.24-.73-.76v-4.62h1.77v-2.15h-1.77v-2.93Z"/>
  <path class="cls-1" d="M272.33,47.76c.28-.61.84-.95,1.56-.95s1.27.34,1.55.95c.13.31.19.54.21.88h-3.53c.02-.34.08-.57.21-.88M273.88,44.49c-2.78,0-4.5,1.99-4.5,5.19,0,4.31,2.59,5.21,4.77,5.21,1.91,0,2.91-.61,3.9-1.6l.09-.1-1.71-1.65-.09.09c-.6.59-1.1.89-2.18.89-1.23,0-2-.74-2.06-1.95h6.27v-1.23c0-2.96-1.77-4.87-4.5-4.87"/>
  <path class="cls-1" d="M285.53,44.49c-.89,0-1.8.33-2.39.87v-.76h-2.71v10.18h2.77v-6.11c0-1.16.77-1.69,1.48-1.69.57,0,.87.18,1.24.55l.09.09,2.07-2.07-.1-.09c-.69-.69-1.41-.97-2.46-.97"/>
  <path class="cls-1" d="M294.29,44.49c-.9,0-1.8.33-2.39.87v-.76h-2.71v10.18h2.77v-6.11c0-1.16.77-1.69,1.49-1.69.57,0,.86.18,1.24.55l.09.09,2.07-2.07-.09-.09c-.7-.69-1.41-.97-2.46-.97"/>
  <path class="cls-1" d="M299.8,47.76c.28-.61.83-.95,1.56-.95s1.27.34,1.55.95c.13.31.19.54.21.88h-3.53c.02-.34.08-.57.21-.88M301.36,44.49c-2.78,0-4.5,1.99-4.5,5.19,0,4.31,2.59,5.21,4.77,5.21,1.91,0,2.91-.61,3.91-1.6l.09-.1-1.71-1.65-.09.09c-.6.59-1.1.89-2.18.89-1.23,0-2.01-.74-2.06-1.95h6.27v-1.23c0-2.96-1.77-4.87-4.5-4.87"/>
  <path class="cls-1" d="M311.23,50.45l-1.98-5.84h-2.92l3.48,9.35-.41,1.17c-.22.65-.44.81-1.13.81h-.71v2.49h1.11c.97,0,1.71-.26,2.25-.8.3-.3.55-.71.78-1.32l4.36-11.69h-2.92l-1.91,5.84Z"/>
  <path class="cls-2" d="M28.57,27.75c0,3.11.06,6.22-.03,9.33-.03,1.17-.22,2.4-.64,3.48-.69,1.77-2.17,2.47-4.05,2.21-1.74-.23-2.81-1.31-3.07-3.22-.13-.94-.11-1.91-.11-2.87,0-9.99-.01-19.98,0-29.98,0-1.6,0-3.18,0-5.16H0v21.36h0c0,6.04,0,12.07.01,18.11,0,1.49.06,3,.31,4.47.96,5.57,4.07,9.41,9.6,10.89,5.58,1.48,10.91.79,15.75-2.57,1.07-.74,2.12-1.5,3.45-2.45v3.41h20.01v-9.15c0-5.9,0-11.8,0-17.71v-2.01h-20.48c-.03.68-.09,1.26-.09,1.84"/>
  <path class="cls-2" d="M162.23,49.82c-.02-11.37,0-22.75-.03-34.13,0-1.55-.1-3.11-.32-4.65-.75-5.14-4.39-9.19-9.47-10.31-1.96-.43-4.04-.52-6.05-.46-4.9.13-9.21,1.88-12.83,5.24-.34.31-.72.58-1.13.9-1.37-1.74-2.82-3.24-4.7-4.24-4.85-2.58-9.87-2.47-14.98-.93-2.49.74-4.34,2.47-6.28,4.07-.76.63-1.53,1.25-2.37,1.93-1.92-3.44-4.6-5.7-8.23-6.49-6.39-1.39-12.37-.32-17.71,3.61-.81.59-1.51,1.33-2.22,1.96-.16-.04-.24-.04-.28-.07-.28-.31-.56-.62-.83-.93-1.72-1.98-3.78-3.55-6.32-4.25-6.92-1.9-13.27-.87-18.81,3.94-.35.3-.69.62-1.31,1.17V1.55h-19.78v18.86c.02.45.05.91.07,1.43h20.49c0-1-.06-1.89.02-2.77.08-.94.18-1.92.48-2.81.52-1.53,2.06-2.37,3.73-2.2,1.68.17,2.69,1.09,2.95,2.86.17,1.12.25,2.26.25,3.39,0,1.84,0,3.69,0,5.53h0v.92c0,5.16,0,10.32,0,15.48v12.53h20.92v-31.5c0-1.59,0-3.17,0-4.75,0-.71.09-1.44.3-2.11.49-1.55,1.77-2.39,3.42-2.37,1.6.03,2.76.8,3.22,2.36.25.84.32,1.76.34,2.65.12,5.8.28,11.61.26,17.41-.01,3.92.14,7.83.11,11.77v6.54h20.7v-5.98c0-.23,0-.46,0-.7v-.22h0c0-.35,0-.69,0-1.04,0-9.1-.02-18.2.02-27.3,0-1.12.14-2.29.5-3.34.53-1.57,2.08-2.33,3.75-2.12,1.67.2,2.65,1.13,2.9,2.92.13.94.12,1.91.12,2.87,0,10.12.01,20.24,0,30.36,0,.19,0,.38-.01.57v4h21.05v-2.73c0-.05,0-.1,0-.15-.01-11.02,0-22.03,0-33.05,0-.71.02-1.45.18-2.14.39-1.65,1.66-2.61,3.39-2.66,1.65-.05,2.91.77,3.35,2.41.28,1.02.35,2.12.35,3.19.02,9.49.03,18.98,0,28.46h.02v1.6c.02.91.04,1.82,0,2.72v2.35h20.75v-3.93c0-.34-.01-.68-.01-1.02"/>
  <rect class="cls-1" x="180.08" width="2.38" height="54.82"/>
</svg>